<?xml version="1.0" encoding="UTF-8"?>
<svg width="34px" height="34px" viewBox="0 0 34 34" version="1.1" xmlns="http://www.w3.org/2000/svg" xmlns:xlink="http://www.w3.org/1999/xlink">
    <title>user</title>
    <g id="Page-1" stroke="none" stroke-width="1" fill="none" fill-rule="evenodd">
        <path d="M17,0 C7.62119612,0 0,7.61956417 0,17 C0,26.3788039 7.61956417,34 17,34 C26.3788039,34 34,26.3804358 34,17 C34,7.62119612 26.3804358,0 17,0 L17,0 Z M17,1.51081645 C25.56283,1.51081645 32.4892243,8.43721081 32.4892243,17.0000408 C32.4892243,21.4544423 30.6118316,25.4641379 27.6076606,28.2865916 C25.1071494,24.2242656 21.2312326,21.7588005 17.0603821,21.7588005 C12.8642363,21.7588005 8.96755304,24.2545383 6.4718969,28.3632932 C3.42154171,25.536066 1.5124076,21.494425 1.5124076,17.0000408 C1.5124076,8.43721081 8.43880196,1.51081645 17.0016319,1.51081645 L17,1.51081645 Z M17,7.28627964 C13.461978,7.28627964 10.5774695,10.1708697 10.5774695,13.7088101 C10.5774695,17.2467505 13.4620596,20.1313406 17,20.1313406 C20.5379404,20.1313406 23.4225305,17.2467505 23.4225305,13.7088101 C23.4225305,10.1708697 20.5379404,7.28627964 17,7.28627964 Z M17,8.79709609 C19.7204569,8.79709609 21.9101229,10.9868436 21.9101229,13.707219 C21.9101229,16.4276759 19.7203753,18.6173418 17,18.6173418 C14.2796247,18.6173418 12.0898771,16.4275943 12.0898771,13.707219 C12.0898771,10.986762 14.2796247,8.79709609 17,8.79709609 Z M17.0605616,23.269617 C20.7005803,23.269617 24.171774,25.4545911 26.4409974,29.2792647 C23.8289426,31.2905179 20.5570097,32.4873884 16.9997715,32.4873884 C13.4824753,32.4873884 10.2410598,31.3176082 7.64299894,29.3462153 C9.91083517,25.4814774 13.3992867,23.2692498 17.0601536,23.2692498 L17.0605616,23.269617 Z" id="user" fill="#FFFFFF" fill-rule="nonzero"></path>
    </g>
</svg>